<svg xmlns="http://www.w3.org/2000/svg" xmlns:xlink="http://www.w3.org/1999/xlink" width="500" zoomAndPan="magnify" viewBox="0 0 375 374.999991" height="500" preserveAspectRatio="xMidYMid meet" version="1.0"><defs><g/><clipPath id="907d104f8a"><path d="M 295 126 L 332.855469 126 L 332.855469 230 L 295 230 Z M 295 126 " clip-rule="nonzero"/></clipPath></defs><g fill="#050a30" fill-opacity="1"><g transform="translate(75.491221, 185.413261)"><g><path d="M 17.6875 0 L 17.6875 -13.453125 L 8.9375 -13.453125 L 8.9375 0 L 2.75 0 L 2.75 -30.703125 L 8.9375 -30.703125 L 8.9375 -18.5625 L 17.6875 -18.5625 L 17.6875 -30.703125 L 23.875 -30.703125 L 23.875 0 Z M 17.6875 0 "/></g></g></g><g fill="#050a30" fill-opacity="1"><g transform="translate(97.418832, 185.413261)"><g><path d="M 22.421875 -6.265625 C 22.421875 -5.359375 22.546875 -4.703125 22.796875 -4.296875 C 23.054688 -3.890625 23.476562 -3.582031 24.0625 -3.375 L 22.796875 0.625 C 21.523438 0.488281 20.441406 0.175781 19.546875 -0.3125 C 18.648438 -0.800781 17.960938 -1.546875 17.484375 -2.546875 C 16.597656 -1.472656 15.472656 -0.664062 14.109375 -0.125 C 12.753906 0.414062 11.335938 0.6875 9.859375 0.6875 C 7.460938 0.6875 5.554688 0.00390625 4.140625 -1.359375 C 2.722656 -2.734375 2.015625 -4.507812 2.015625 -6.6875 C 2.015625 -9.195312 3 -11.128906 4.96875 -12.484375 C 6.9375 -13.835938 9.726562 -14.515625 13.34375 -14.515625 L 16.578125 -14.515625 L 16.578125 -15.734375 C 16.578125 -17.109375 16.148438 -18.109375 15.296875 -18.734375 C 14.453125 -19.359375 13.238281 -19.671875 11.65625 -19.671875 C 10.882812 -19.671875 9.929688 -19.566406 8.796875 -19.359375 C 7.671875 -19.148438 6.503906 -18.84375 5.296875 -18.4375 L 3.890625 -22.53125 C 5.378906 -23.09375 6.890625 -23.507812 8.421875 -23.78125 C 9.953125 -24.050781 11.335938 -24.1875 12.578125 -24.1875 C 15.910156 -24.1875 18.382812 -23.484375 20 -22.078125 C 21.613281 -20.671875 22.421875 -18.679688 22.421875 -16.109375 Z M 11.8125 -3.65625 C 12.695312 -3.65625 13.585938 -3.898438 14.484375 -4.390625 C 15.378906 -4.878906 16.078125 -5.578125 16.578125 -6.484375 L 16.578125 -10.984375 L 14.34375 -10.984375 C 12.195312 -10.984375 10.644531 -10.640625 9.6875 -9.953125 C 8.726562 -9.265625 8.25 -8.285156 8.25 -7.015625 C 8.25 -5.953125 8.550781 -5.125 9.15625 -4.53125 C 9.769531 -3.945312 10.65625 -3.65625 11.8125 -3.65625 Z M 11.8125 -3.65625 "/></g></g></g><g fill="#050a30" fill-opacity="1"><g transform="translate(119.346443, 185.413261)"><g><path d="M 14.828125 -32.890625 L 14.828125 -6.90625 C 14.828125 -5.894531 15.125 -5.175781 15.71875 -4.75 C 16.320312 -4.320312 17.128906 -4.109375 18.140625 -4.109375 C 18.773438 -4.109375 19.382812 -4.175781 19.96875 -4.3125 C 20.550781 -4.457031 21.109375 -4.632812 21.640625 -4.84375 L 23.109375 -0.78125 C 22.367188 -0.394531 21.460938 -0.0546875 20.390625 0.234375 C 19.328125 0.535156 18.09375 0.6875 16.6875 0.6875 C 14.082031 0.6875 12.117188 -0.0507812 10.796875 -1.53125 C 9.484375 -3.019531 8.828125 -5.03125 8.828125 -7.5625 L 8.828125 -28.671875 L 1.8125 -28.671875 L 1.8125 -32.890625 Z M 14.828125 -32.890625 "/></g></g></g><g fill="#050a30" fill-opacity="1"><g transform="translate(141.274054, 185.413261)"><g><path d="M 22.421875 -6.265625 C 22.421875 -5.359375 22.546875 -4.703125 22.796875 -4.296875 C 23.054688 -3.890625 23.476562 -3.582031 24.0625 -3.375 L 22.796875 0.625 C 21.523438 0.488281 20.441406 0.175781 19.546875 -0.3125 C 18.648438 -0.800781 17.960938 -1.546875 17.484375 -2.546875 C 16.597656 -1.472656 15.472656 -0.664062 14.109375 -0.125 C 12.753906 0.414062 11.335938 0.6875 9.859375 0.6875 C 7.460938 0.6875 5.554688 0.00390625 4.140625 -1.359375 C 2.722656 -2.734375 2.015625 -4.507812 2.015625 -6.6875 C 2.015625 -9.195312 3 -11.128906 4.96875 -12.484375 C 6.9375 -13.835938 9.726562 -14.515625 13.34375 -14.515625 L 16.578125 -14.515625 L 16.578125 -15.734375 C 16.578125 -17.109375 16.148438 -18.109375 15.296875 -18.734375 C 14.453125 -19.359375 13.238281 -19.671875 11.65625 -19.671875 C 10.882812 -19.671875 9.929688 -19.566406 8.796875 -19.359375 C 7.671875 -19.148438 6.503906 -18.84375 5.296875 -18.4375 L 3.890625 -22.53125 C 5.378906 -23.09375 6.890625 -23.507812 8.421875 -23.78125 C 9.953125 -24.050781 11.335938 -24.1875 12.578125 -24.1875 C 15.910156 -24.1875 18.382812 -23.484375 20 -22.078125 C 21.613281 -20.671875 22.421875 -18.679688 22.421875 -16.109375 Z M 11.8125 -3.65625 C 12.695312 -3.65625 13.585938 -3.898438 14.484375 -4.390625 C 15.378906 -4.878906 16.078125 -5.578125 16.578125 -6.484375 L 16.578125 -10.984375 L 14.34375 -10.984375 C 12.195312 -10.984375 10.644531 -10.640625 9.6875 -9.953125 C 8.726562 -9.265625 8.25 -8.285156 8.25 -7.015625 C 8.25 -5.953125 8.550781 -5.125 9.15625 -4.53125 C 9.769531 -3.945312 10.65625 -3.65625 11.8125 -3.65625 Z M 11.8125 -3.65625 "/></g></g></g><g fill="#050a30" fill-opacity="1"><g transform="translate(163.201666, 185.413261)"><g><path d="M 14.828125 -32.890625 L 14.828125 -6.90625 C 14.828125 -5.894531 15.125 -5.175781 15.71875 -4.75 C 16.320312 -4.320312 17.128906 -4.109375 18.140625 -4.109375 C 18.773438 -4.109375 19.382812 -4.175781 19.96875 -4.3125 C 20.550781 -4.457031 21.109375 -4.632812 21.640625 -4.84375 L 23.109375 -0.78125 C 22.367188 -0.394531 21.460938 -0.0546875 20.390625 0.234375 C 19.328125 0.535156 18.09375 0.6875 16.6875 0.6875 C 14.082031 0.6875 12.117188 -0.0507812 10.796875 -1.53125 C 9.484375 -3.019531 8.828125 -5.03125 8.828125 -7.5625 L 8.828125 -28.671875 L 1.8125 -28.671875 L 1.8125 -32.890625 Z M 14.828125 -32.890625 "/></g></g></g><g fill="#050a30" fill-opacity="1"><g transform="translate(185.129277, 185.413261)"><g><path d="M 17.140625 -23.5 L 17.140625 -4.21875 L 23.3125 -4.21875 L 23.3125 0 L 4.3125 0 L 4.3125 -4.21875 L 11.140625 -4.21875 L 11.140625 -19.28125 L 4.53125 -19.28125 L 4.53125 -23.5 Z M 13.296875 -35.421875 C 14.390625 -35.421875 15.273438 -35.078125 15.953125 -34.390625 C 16.640625 -33.710938 16.984375 -32.878906 16.984375 -31.890625 C 16.984375 -30.867188 16.640625 -30.019531 15.953125 -29.34375 C 15.273438 -28.664062 14.390625 -28.328125 13.296875 -28.328125 C 12.203125 -28.328125 11.3125 -28.664062 10.625 -29.34375 C 9.9375 -30.019531 9.59375 -30.867188 9.59375 -31.890625 C 9.59375 -32.878906 9.9375 -33.710938 10.625 -34.390625 C 11.3125 -35.078125 12.203125 -35.421875 13.296875 -35.421875 Z M 13.296875 -35.421875 "/></g></g></g><g fill="#050a30" fill-opacity="1"><g transform="translate(207.056888, 185.413261)"><g><path d="M 12.515625 -3.734375 C 13.878906 -3.734375 14.96875 -3.960938 15.78125 -4.421875 C 16.59375 -4.890625 17 -5.554688 17 -6.421875 C 17 -6.984375 16.863281 -7.460938 16.59375 -7.859375 C 16.332031 -8.253906 15.796875 -8.625 14.984375 -8.96875 C 14.179688 -9.3125 12.988281 -9.695312 11.40625 -10.125 C 9.914062 -10.507812 8.601562 -10.988281 7.46875 -11.5625 C 6.332031 -12.132812 5.453125 -12.875 4.828125 -13.78125 C 4.203125 -14.6875 3.890625 -15.828125 3.890625 -17.203125 C 3.890625 -18.578125 4.273438 -19.789062 5.046875 -20.84375 C 5.828125 -21.894531 6.945312 -22.710938 8.40625 -23.296875 C 9.875 -23.890625 11.632812 -24.1875 13.6875 -24.1875 C 15.726562 -24.1875 17.503906 -23.921875 19.015625 -23.390625 C 20.523438 -22.867188 21.820312 -22.210938 22.90625 -21.421875 L 20.484375 -17.796875 C 19.535156 -18.398438 18.503906 -18.890625 17.390625 -19.265625 C 16.285156 -19.640625 15.101562 -19.828125 13.84375 -19.828125 C 12.488281 -19.828125 11.503906 -19.632812 10.890625 -19.25 C 10.273438 -18.863281 9.96875 -18.3125 9.96875 -17.59375 C 9.96875 -17.113281 10.117188 -16.707031 10.421875 -16.375 C 10.734375 -16.039062 11.304688 -15.707031 12.140625 -15.375 C 12.984375 -15.050781 14.175781 -14.675781 15.71875 -14.25 C 17.238281 -13.820312 18.566406 -13.328125 19.703125 -12.765625 C 20.847656 -12.203125 21.726562 -11.453125 22.34375 -10.515625 C 22.96875 -9.585938 23.28125 -8.367188 23.28125 -6.859375 C 23.28125 -5.160156 22.78125 -3.75 21.78125 -2.625 C 20.78125 -1.507812 19.46875 -0.675781 17.84375 -0.125 C 16.21875 0.414062 14.453125 0.6875 12.546875 0.6875 C 10.328125 0.6875 8.378906 0.363281 6.703125 -0.28125 C 5.023438 -0.925781 3.613281 -1.75 2.46875 -2.75 L 5.578125 -6.234375 C 6.492188 -5.515625 7.535156 -4.914062 8.703125 -4.4375 C 9.867188 -3.96875 11.140625 -3.734375 12.515625 -3.734375 Z M 12.515625 -3.734375 "/></g></g></g><g fill="#050a30" fill-opacity="1"><g transform="translate(228.984499, 185.413261)"><g><path d="M 22.421875 -6.265625 C 22.421875 -5.359375 22.546875 -4.703125 22.796875 -4.296875 C 23.054688 -3.890625 23.476562 -3.582031 24.0625 -3.375 L 22.796875 0.625 C 21.523438 0.488281 20.441406 0.175781 19.546875 -0.3125 C 18.648438 -0.800781 17.960938 -1.546875 17.484375 -2.546875 C 16.597656 -1.472656 15.472656 -0.664062 14.109375 -0.125 C 12.753906 0.414062 11.335938 0.6875 9.859375 0.6875 C 7.460938 0.6875 5.554688 0.00390625 4.140625 -1.359375 C 2.722656 -2.734375 2.015625 -4.507812 2.015625 -6.6875 C 2.015625 -9.195312 3 -11.128906 4.96875 -12.484375 C 6.9375 -13.835938 9.726562 -14.515625 13.34375 -14.515625 L 16.578125 -14.515625 L 16.578125 -15.734375 C 16.578125 -17.109375 16.148438 -18.109375 15.296875 -18.734375 C 14.453125 -19.359375 13.238281 -19.671875 11.65625 -19.671875 C 10.882812 -19.671875 9.929688 -19.566406 8.796875 -19.359375 C 7.671875 -19.148438 6.503906 -18.84375 5.296875 -18.4375 L 3.890625 -22.53125 C 5.378906 -23.09375 6.890625 -23.507812 8.421875 -23.78125 C 9.953125 -24.050781 11.335938 -24.1875 12.578125 -24.1875 C 15.910156 -24.1875 18.382812 -23.484375 20 -22.078125 C 21.613281 -20.671875 22.421875 -18.679688 22.421875 -16.109375 Z M 11.8125 -3.65625 C 12.695312 -3.65625 13.585938 -3.898438 14.484375 -4.390625 C 15.378906 -4.878906 16.078125 -5.578125 16.578125 -6.484375 L 16.578125 -10.984375 L 14.34375 -10.984375 C 12.195312 -10.984375 10.644531 -10.640625 9.6875 -9.953125 C 8.726562 -9.265625 8.25 -8.285156 8.25 -7.015625 C 8.25 -5.953125 8.550781 -5.125 9.15625 -4.53125 C 9.769531 -3.945312 10.65625 -3.65625 11.8125 -3.65625 Z M 11.8125 -3.65625 "/></g></g></g><g fill="#050a30" fill-opacity="1"><g transform="translate(250.91211, 185.413261)"><g><path d="M 3.53125 0 L 3.53125 -23.5 L 8.75 -23.5 L 9.171875 -20.625 C 10.191406 -21.800781 11.320312 -22.6875 12.5625 -23.28125 C 13.800781 -23.882812 15.148438 -24.1875 16.609375 -24.1875 C 18.703125 -24.1875 20.3125 -23.578125 21.4375 -22.359375 C 22.5625 -21.140625 23.125 -19.421875 23.125 -17.203125 L 23.125 0 L 17.140625 0 L 17.140625 -14.953125 C 17.140625 -16.109375 17.0625 -17.035156 16.90625 -17.734375 C 16.757812 -18.441406 16.484375 -18.945312 16.078125 -19.25 C 15.671875 -19.550781 15.082031 -19.703125 14.3125 -19.703125 C 13.695312 -19.703125 13.101562 -19.566406 12.53125 -19.296875 C 11.957031 -19.035156 11.421875 -18.671875 10.921875 -18.203125 C 10.421875 -17.742188 9.953125 -17.222656 9.515625 -16.640625 L 9.515625 0 Z M 3.53125 0 "/></g></g></g><g fill="#050a30" fill-opacity="1"><g transform="translate(272.839721, 185.413261)"><g><path d="M 17.140625 -23.5 L 17.140625 -4.21875 L 23.3125 -4.21875 L 23.3125 0 L 4.3125 0 L 4.3125 -4.21875 L 11.140625 -4.21875 L 11.140625 -19.28125 L 4.53125 -19.28125 L 4.53125 -23.5 Z M 13.296875 -35.421875 C 14.390625 -35.421875 15.273438 -35.078125 15.953125 -34.390625 C 16.640625 -33.710938 16.984375 -32.878906 16.984375 -31.890625 C 16.984375 -30.867188 16.640625 -30.019531 15.953125 -29.34375 C 15.273438 -28.664062 14.390625 -28.328125 13.296875 -28.328125 C 12.203125 -28.328125 11.3125 -28.664062 10.625 -29.34375 C 9.9375 -30.019531 9.59375 -30.867188 9.59375 -31.890625 C 9.59375 -32.878906 9.9375 -33.710938 10.625 -34.390625 C 11.3125 -35.078125 12.203125 -35.421875 13.296875 -35.421875 Z M 13.296875 -35.421875 "/></g></g></g><path fill="#050a30" d="M 78.730469 226.441406 C 73.964844 225.871094 68.464844 227.753906 64.09375 225.101562 C 59.847656 222.519531 60.277344 216.421875 60.472656 212.121094 C 60.914062 202.40625 63.230469 190.769531 56.585938 182.496094 C 55.011719 180.535156 53.011719 178.941406 50.777344 177.945312 C 52.21875 177.175781 53.546875 176.171875 54.703125 175.015625 C 58.097656 171.617188 59.953125 167.039062 60.6875 162.324219 C 61.511719 157.011719 60.988281 151.65625 60.597656 146.332031 C 60.398438 143.585938 60.234375 140.832031 60.355469 138.082031 C 60.441406 136.09375 60.675781 133.714844 62.054688 132.160156 C 63.652344 130.359375 66.375 129.902344 68.65625 129.851562 C 71.71875 129.78125 74.742188 130.261719 77.804688 129.894531 C 79.007812 129.75 80.035156 126.746094 78.355469 126.949219 C 73.554688 127.523438 68.617188 125.917969 64.03125 128.039062 C 59.617188 130.078125 58.207031 134.871094 58.007812 139.394531 C 57.765625 144.917969 58.632812 150.40625 58.773438 155.914062 C 58.898438 160.777344 58.46875 165.960938 55.957031 170.230469 C 53.535156 174.351562 48.863281 177.144531 44.058594 176.46875 C 43.019531 176.320312 41.929688 178.367188 42.4375 179.164062 C 42.464844 179.625 42.71875 179.953125 43.308594 179.867188 C 47.648438 179.261719 51.890625 181.644531 54.566406 184.96875 C 57.660156 188.820312 58.683594 193.894531 58.851562 198.734375 C 59.039062 204.144531 58.203125 209.519531 58.070312 214.917969 C 57.964844 219.292969 58.035156 224.742188 61.925781 227.578125 C 66.472656 230.898438 72.484375 228.824219 77.605469 229.4375 C 78.859375 229.59375 80.171875 226.617188 78.730469 226.441406 Z M 78.730469 226.441406 " fill-opacity="1" fill-rule="nonzero"/><g clip-path="url(#907d104f8a)"><path fill="#050a30" d="M 296.261719 226.441406 C 301.023438 225.871094 306.523438 227.753906 310.894531 225.101562 C 315.140625 222.519531 314.710938 216.421875 314.515625 212.121094 C 314.074219 202.40625 311.757812 190.769531 318.402344 182.496094 C 319.976562 180.535156 321.976562 178.941406 324.210938 177.945312 C 322.769531 177.175781 321.441406 176.171875 320.285156 175.015625 C 316.890625 171.617188 315.035156 167.039062 314.300781 162.324219 C 313.476562 157.011719 314 151.65625 314.390625 146.332031 C 314.589844 143.585938 314.753906 140.832031 314.632812 138.082031 C 314.546875 136.09375 314.3125 133.714844 312.933594 132.160156 C 311.335938 130.359375 308.613281 129.902344 306.335938 129.851562 C 303.269531 129.78125 300.246094 130.261719 297.183594 129.894531 C 295.980469 129.75 294.953125 126.746094 296.632812 126.949219 C 301.433594 127.523438 306.371094 125.917969 310.957031 128.039062 C 315.371094 130.078125 316.78125 134.871094 316.980469 139.394531 C 317.222656 144.917969 316.355469 150.40625 316.214844 155.914062 C 316.089844 160.777344 316.519531 165.960938 319.03125 170.230469 C 321.453125 174.351562 326.125 177.144531 330.929688 176.46875 C 331.96875 176.320312 333.058594 178.367188 332.550781 179.164062 C 332.523438 179.625 332.269531 179.953125 331.679688 179.867188 C 327.339844 179.261719 323.097656 181.644531 320.421875 184.96875 C 317.328125 188.820312 316.304688 193.894531 316.136719 198.734375 C 315.949219 204.144531 316.785156 209.519531 316.917969 214.917969 C 317.023438 219.292969 316.953125 224.742188 313.0625 227.578125 C 308.519531 230.898438 302.503906 228.824219 297.382812 229.4375 C 296.128906 229.59375 294.816406 226.617188 296.261719 226.441406 Z M 296.261719 226.441406 " fill-opacity="1" fill-rule="nonzero"/></g><g fill="#050a30" fill-opacity="1"><g transform="translate(150.336376, 205.61795)"><g><path d="M 7.859375 -7.8125 C 7.859375 -8.445312 7.726562 -8.945312 7.46875 -9.3125 C 7.21875 -9.675781 6.878906 -9.9375 6.453125 -10.09375 C 6.023438 -10.25 5.550781 -10.328125 5.03125 -10.328125 L 3.1875 -10.328125 L 3.1875 -5.203125 L 4.921875 -5.203125 C 5.472656 -5.203125 5.96875 -5.273438 6.40625 -5.421875 C 6.851562 -5.566406 7.207031 -5.828125 7.46875 -6.203125 C 7.726562 -6.578125 7.859375 -7.113281 7.859375 -7.8125 Z M 9 -7.84375 C 9 -6.957031 8.8125 -6.253906 8.4375 -5.734375 C 8.070312 -5.222656 7.5625 -4.851562 6.90625 -4.625 C 6.257812 -4.40625 5.519531 -4.296875 4.6875 -4.296875 L 3.1875 -4.296875 L 3.1875 0 L 2.140625 0 L 2.140625 -11.21875 L 4.8125 -11.21875 C 6.09375 -11.21875 7.109375 -10.941406 7.859375 -10.390625 C 8.617188 -9.847656 9 -9 9 -7.84375 Z M 9 -7.84375 "/></g></g></g><g fill="#050a30" fill-opacity="1"><g transform="translate(158.400879, 205.61795)"><g><path d="M 4.921875 -8.734375 C 5.703125 -8.734375 6.351562 -8.550781 6.875 -8.1875 C 7.40625 -7.820312 7.796875 -7.304688 8.046875 -6.640625 C 8.304688 -5.972656 8.4375 -5.1875 8.4375 -4.28125 C 8.4375 -3.4375 8.300781 -2.675781 8.03125 -2 C 7.769531 -1.332031 7.375 -0.804688 6.84375 -0.421875 C 6.320312 -0.0351562 5.675781 0.15625 4.90625 0.15625 C 4.113281 0.15625 3.453125 -0.0234375 2.921875 -0.390625 C 2.398438 -0.765625 2.007812 -1.285156 1.75 -1.953125 C 1.488281 -2.617188 1.359375 -3.390625 1.359375 -4.265625 C 1.359375 -5.140625 1.488281 -5.910156 1.75 -6.578125 C 2.019531 -7.253906 2.421875 -7.78125 2.953125 -8.15625 C 3.484375 -8.539062 4.140625 -8.734375 4.921875 -8.734375 Z M 4.921875 -7.84375 C 4.117188 -7.84375 3.507812 -7.550781 3.09375 -6.96875 C 2.675781 -6.382812 2.46875 -5.484375 2.46875 -4.265625 C 2.46875 -3.078125 2.671875 -2.191406 3.078125 -1.609375 C 3.484375 -1.023438 4.09375 -0.734375 4.90625 -0.734375 C 5.707031 -0.734375 6.3125 -1.023438 6.71875 -1.609375 C 7.125 -2.191406 7.328125 -3.082031 7.328125 -4.28125 C 7.328125 -5.488281 7.125 -6.382812 6.71875 -6.96875 C 6.3125 -7.550781 5.710938 -7.84375 4.921875 -7.84375 Z M 4.921875 -7.84375 "/></g></g></g><g fill="#050a30" fill-opacity="1"><g transform="translate(166.465382, 205.61795)"><g><path d="M 1.875 0 L 1.875 -0.84375 L 3.265625 -0.84375 L 3.265625 -7.71875 L 1.875 -7.71875 L 1.875 -8.578125 L 4.046875 -8.578125 L 4.234375 -6.515625 C 4.566406 -7.210938 4.96875 -7.757812 5.4375 -8.15625 C 5.90625 -8.550781 6.539062 -8.75 7.34375 -8.75 C 7.570312 -8.75 7.773438 -8.726562 7.953125 -8.6875 C 8.128906 -8.65625 8.3125 -8.617188 8.5 -8.578125 L 8.21875 -7.609375 C 8.03125 -7.671875 7.863281 -7.710938 7.71875 -7.734375 C 7.570312 -7.753906 7.40625 -7.765625 7.21875 -7.765625 C 6.53125 -7.765625 5.941406 -7.53125 5.453125 -7.0625 C 4.972656 -6.59375 4.582031 -5.847656 4.28125 -4.828125 L 4.28125 -0.84375 L 6.046875 -0.84375 L 6.046875 0 Z M 7.40625 -5.875 L 7.40625 -7.546875 L 7.484375 -8.578125 L 8.5 -8.578125 L 8.390625 -5.875 Z M 7.40625 -5.875 "/></g></g></g><g fill="#050a30" fill-opacity="1"><g transform="translate(174.529885, 205.61795)"><g><path d="M 8.328125 -0.40625 C 8.046875 -0.21875 7.703125 -0.078125 7.296875 0.015625 C 6.890625 0.109375 6.519531 0.15625 6.1875 0.15625 C 5.320312 0.15625 4.644531 -0.0664062 4.15625 -0.515625 C 3.664062 -0.972656 3.421875 -1.550781 3.421875 -2.25 L 3.421875 -7.71875 L 1.40625 -7.71875 L 1.40625 -8.578125 L 3.421875 -8.578125 L 3.421875 -10.546875 L 4.4375 -10.671875 L 4.4375 -8.578125 L 7.46875 -8.578125 L 7.328125 -7.71875 L 4.4375 -7.71875 L 4.4375 -2.265625 C 4.4375 -1.773438 4.570312 -1.394531 4.84375 -1.125 C 5.113281 -0.851562 5.566406 -0.71875 6.203125 -0.71875 C 6.523438 -0.71875 6.828125 -0.753906 7.109375 -0.828125 C 7.390625 -0.910156 7.648438 -1.015625 7.890625 -1.140625 Z M 8.328125 -0.40625 "/></g></g></g><g fill="#050a30" fill-opacity="1"><g transform="translate(182.594389, 205.61795)"><g><path d="M 6.734375 -12.1875 C 7.148438 -12.1875 7.53125 -12.144531 7.875 -12.0625 C 8.21875 -11.988281 8.550781 -11.878906 8.875 -11.734375 L 8.5 -10.921875 C 8.238281 -11.046875 7.953125 -11.140625 7.640625 -11.203125 C 7.328125 -11.265625 7.003906 -11.296875 6.671875 -11.296875 C 6.046875 -11.296875 5.566406 -11.171875 5.234375 -10.921875 C 4.910156 -10.671875 4.75 -10.289062 4.75 -9.78125 L 4.75 -7.875 L 7.703125 -7.875 L 7.59375 -7 L 4.75 -7 L 4.75 0 L 3.734375 0 L 3.734375 -7 L 1.609375 -7 L 1.609375 -7.875 L 3.734375 -7.875 L 3.734375 -9.71875 C 3.734375 -10.238281 3.867188 -10.679688 4.140625 -11.046875 C 4.421875 -11.410156 4.785156 -11.691406 5.234375 -11.890625 C 5.691406 -12.085938 6.191406 -12.1875 6.734375 -12.1875 Z M 6.734375 -12.1875 "/></g></g></g><g fill="#050a30" fill-opacity="1"><g transform="translate(190.658893, 205.61795)"><g><path d="M 4.921875 -8.734375 C 5.703125 -8.734375 6.351562 -8.550781 6.875 -8.1875 C 7.40625 -7.820312 7.796875 -7.304688 8.046875 -6.640625 C 8.304688 -5.972656 8.4375 -5.1875 8.4375 -4.28125 C 8.4375 -3.4375 8.300781 -2.675781 8.03125 -2 C 7.769531 -1.332031 7.375 -0.804688 6.84375 -0.421875 C 6.320312 -0.0351562 5.675781 0.15625 4.90625 0.15625 C 4.113281 0.15625 3.453125 -0.0234375 2.921875 -0.390625 C 2.398438 -0.765625 2.007812 -1.285156 1.75 -1.953125 C 1.488281 -2.617188 1.359375 -3.390625 1.359375 -4.265625 C 1.359375 -5.140625 1.488281 -5.910156 1.75 -6.578125 C 2.019531 -7.253906 2.421875 -7.78125 2.953125 -8.15625 C 3.484375 -8.539062 4.140625 -8.734375 4.921875 -8.734375 Z M 4.921875 -7.84375 C 4.117188 -7.84375 3.507812 -7.550781 3.09375 -6.96875 C 2.675781 -6.382812 2.46875 -5.484375 2.46875 -4.265625 C 2.46875 -3.078125 2.671875 -2.191406 3.078125 -1.609375 C 3.484375 -1.023438 4.09375 -0.734375 4.90625 -0.734375 C 5.707031 -0.734375 6.3125 -1.023438 6.71875 -1.609375 C 7.125 -2.191406 7.328125 -3.082031 7.328125 -4.28125 C 7.328125 -5.488281 7.125 -6.382812 6.71875 -6.96875 C 6.3125 -7.550781 5.710938 -7.84375 4.921875 -7.84375 Z M 4.921875 -7.84375 "/></g></g></g><g fill="#050a30" fill-opacity="1"><g transform="translate(198.723397, 205.61795)"><g><path d="M 4.78125 -12.046875 L 4.78125 -1.9375 C 4.78125 -1.5 4.921875 -1.1875 5.203125 -1 C 5.492188 -0.8125 5.859375 -0.71875 6.296875 -0.71875 C 6.566406 -0.71875 6.820312 -0.742188 7.0625 -0.796875 C 7.300781 -0.847656 7.550781 -0.925781 7.8125 -1.03125 L 8.09375 -0.25 C 7.882812 -0.144531 7.613281 -0.0507812 7.28125 0.03125 C 6.957031 0.113281 6.597656 0.15625 6.203125 0.15625 C 5.523438 0.15625 4.945312 -0.0234375 4.46875 -0.390625 C 4 -0.753906 3.765625 -1.269531 3.765625 -1.9375 L 3.765625 -11.15625 L 1.109375 -11.15625 L 1.109375 -12.046875 Z M 4.78125 -12.046875 "/></g></g></g><g fill="#050a30" fill-opacity="1"><g transform="translate(206.787902, 205.61795)"><g><path d="M 5.859375 -8.578125 L 5.859375 -0.875 L 8.359375 -0.875 L 8.359375 0 L 2.140625 0 L 2.140625 -0.875 L 4.84375 -0.875 L 4.84375 -7.6875 L 2.21875 -7.6875 L 2.21875 -8.578125 Z M 4.90625 -12.453125 C 5.164062 -12.453125 5.367188 -12.375 5.515625 -12.21875 C 5.671875 -12.0625 5.75 -11.867188 5.75 -11.640625 C 5.75 -11.398438 5.671875 -11.195312 5.515625 -11.03125 C 5.367188 -10.875 5.164062 -10.796875 4.90625 -10.796875 C 4.664062 -10.796875 4.46875 -10.875 4.3125 -11.03125 C 4.15625 -11.195312 4.078125 -11.398438 4.078125 -11.640625 C 4.078125 -11.867188 4.15625 -12.0625 4.3125 -12.21875 C 4.46875 -12.375 4.664062 -12.453125 4.90625 -12.453125 Z M 4.90625 -12.453125 "/></g></g></g><g fill="#050a30" fill-opacity="1"><g transform="translate(214.852402, 205.61795)"><g><path d="M 4.921875 -8.734375 C 5.703125 -8.734375 6.351562 -8.550781 6.875 -8.1875 C 7.40625 -7.820312 7.796875 -7.304688 8.046875 -6.640625 C 8.304688 -5.972656 8.4375 -5.1875 8.4375 -4.28125 C 8.4375 -3.4375 8.300781 -2.675781 8.03125 -2 C 7.769531 -1.332031 7.375 -0.804688 6.84375 -0.421875 C 6.320312 -0.0351562 5.675781 0.15625 4.90625 0.15625 C 4.113281 0.15625 3.453125 -0.0234375 2.921875 -0.390625 C 2.398438 -0.765625 2.007812 -1.285156 1.75 -1.953125 C 1.488281 -2.617188 1.359375 -3.390625 1.359375 -4.265625 C 1.359375 -5.140625 1.488281 -5.910156 1.75 -6.578125 C 2.019531 -7.253906 2.421875 -7.78125 2.953125 -8.15625 C 3.484375 -8.539062 4.140625 -8.734375 4.921875 -8.734375 Z M 4.921875 -7.84375 C 4.117188 -7.84375 3.507812 -7.550781 3.09375 -6.96875 C 2.675781 -6.382812 2.46875 -5.484375 2.46875 -4.265625 C 2.46875 -3.078125 2.671875 -2.191406 3.078125 -1.609375 C 3.484375 -1.023438 4.09375 -0.734375 4.90625 -0.734375 C 5.707031 -0.734375 6.3125 -1.023438 6.71875 -1.609375 C 7.125 -2.191406 7.328125 -3.082031 7.328125 -4.28125 C 7.328125 -5.488281 7.125 -6.382812 6.71875 -6.96875 C 6.3125 -7.550781 5.710938 -7.84375 4.921875 -7.84375 Z M 4.921875 -7.84375 "/></g></g></g></svg>