<svg width="640" height="400" viewBox="0 0 640 400" fill="none" xmlns="http://www.w3.org/2000/svg">
  <defs>
    <linearGradient id="pageBg" x1="40" y1="28" x2="586" y2="372" gradientUnits="userSpaceOnUse">
      <stop stop-color="#0D1724"/>
      <stop offset="1" stop-color="#091019"/>
    </linearGradient>
    <linearGradient id="logoBg" x1="76" y1="66" x2="134" y2="124" gradientUnits="userSpaceOnUse">
      <stop stop-color="#3A7CF2"/>
      <stop offset="1" stop-color="#18C7E6"/>
    </linearGradient>
    <linearGradient id="screenGlow" x1="392" y1="94" x2="536" y2="314" gradientUnits="userSpaceOnUse">
      <stop stop-color="#172B46"/>
      <stop offset="1" stop-color="#0A121D"/>
    </linearGradient>
    <linearGradient id="previewFill" x1="420" y1="104" x2="546" y2="236" gradientUnits="userSpaceOnUse">
      <stop stop-color="#2C8BFF"/>
      <stop offset="0.55" stop-color="#1FC5E8"/>
      <stop offset="1" stop-color="#0E1623"/>
    </linearGradient>
    <linearGradient id="waveGlow" x1="64" y1="242" x2="286" y2="272" gradientUnits="userSpaceOnUse">
      <stop stop-color="#18C7E6"/>
      <stop offset="1" stop-color="#3A7CF2"/>
    </linearGradient>
  </defs>

  <rect width="640" height="400" rx="40" fill="url(#pageBg)"/>
  <circle cx="545" cy="74" r="64" fill="#17304D" opacity="0.34"/>
  <circle cx="120" cy="320" r="86" fill="#12263F" opacity="0.55"/>
  <circle cx="518" cy="324" r="96" fill="#0E2034" opacity="0.45"/>

  <rect x="34" y="34" width="572" height="332" rx="30" fill="#0E1723" stroke="#223549" stroke-width="2"/>

  <rect x="58" y="62" width="58" height="58" rx="18" fill="url(#logoBg)"/>
  <rect x="74" y="86" width="12" height="28" rx="6" fill="white"/>
  <rect x="96" y="72" width="12" height="56" rx="6" fill="white"/>
  <rect x="118" y="60" width="12" height="80" rx="6" fill="white"/>
  <rect x="140" y="76" width="12" height="48" rx="6" fill="white"/>
  <path d="M165 72L214 100L165 128V72Z" fill="white"/>

  <text x="58" y="154" fill="#F5C35E" font-family="Arial, Helvetica, sans-serif" font-size="18" font-weight="700" letter-spacing="1.8">IOS VIDEO EDITOR</text>
  <text x="58" y="196" fill="white" font-family="Arial, Helvetica, sans-serif" font-size="48" font-weight="700">SoundFrame</text>
  <text x="58" y="228" fill="#C7D6E6" font-family="Arial, Helvetica, sans-serif" font-size="18">Beat-synced editing for short-form video.</text>

  <rect x="58" y="254" width="120" height="28" rx="14" fill="#142334" stroke="#24455E"/>
  <text x="85" y="273" fill="#DCEAFE" font-family="Arial, Helvetica, sans-serif" font-size="14" font-weight="700">CAPTIONS</text>

  <rect x="190" y="254" width="110" height="28" rx="14" fill="#142334" stroke="#24455E"/>
  <text x="221" y="273" fill="#DCEAFE" font-family="Arial, Helvetica, sans-serif" font-size="14" font-weight="700">LAYERS</text>

  <rect x="58" y="302" width="238" height="14" rx="7" fill="#112130"/>
  <rect x="58" y="302" width="238" height="14" rx="7" fill="url(#waveGlow)" opacity="0.22"/>
  <rect x="72" y="306" width="6" height="6" rx="3" fill="#18C7E6"/>
  <rect x="82" y="304" width="6" height="10" rx="3" fill="#18C7E6"/>
  <rect x="92" y="302" width="6" height="14" rx="3" fill="#18C7E6"/>
  <rect x="102" y="304" width="6" height="10" rx="3" fill="#18C7E6"/>
  <rect x="112" y="300" width="6" height="18" rx="3" fill="#18C7E6"/>
  <rect x="122" y="305" width="6" height="8" rx="3" fill="#18C7E6"/>
  <rect x="132" y="303" width="6" height="12" rx="3" fill="#18C7E6"/>
  <rect x="142" y="300" width="6" height="18" rx="3" fill="#18C7E6"/>
  <rect x="152" y="304" width="6" height="10" rx="3" fill="#18C7E6"/>
  <rect x="162" y="302" width="6" height="14" rx="3" fill="#18C7E6"/>
  <rect x="172" y="305" width="6" height="8" rx="3" fill="#18C7E6"/>
  <rect x="182" y="299" width="6" height="20" rx="3" fill="#18C7E6"/>
  <rect x="192" y="303" width="6" height="12" rx="3" fill="#18C7E6"/>
  <rect x="202" y="304" width="6" height="10" rx="3" fill="#18C7E6"/>
  <rect x="212" y="301" width="6" height="16" rx="3" fill="#18C7E6"/>
  <rect x="222" y="304" width="6" height="10" rx="3" fill="#18C7E6"/>
  <rect x="232" y="306" width="6" height="6" rx="3" fill="#18C7E6"/>
  <rect x="242" y="302" width="6" height="14" rx="3" fill="#18C7E6"/>
  <rect x="252" y="305" width="6" height="8" rx="3" fill="#18C7E6"/>
  <rect x="262" y="303" width="6" height="12" rx="3" fill="#18C7E6"/>
  <rect x="272" y="301" width="6" height="16" rx="3" fill="#18C7E6"/>

  <rect x="354" y="58" width="220" height="284" rx="30" fill="#131F2E" stroke="#29435A" stroke-width="2"/>
  <rect x="382" y="76" width="164" height="12" rx="6" fill="#223649"/>
  <rect x="432" y="80" width="62" height="4" rx="2" fill="#87B5FF"/>

  <rect x="382" y="98" width="164" height="150" rx="20" fill="url(#previewFill)"/>
  <rect x="396" y="114" width="44" height="84" rx="16" fill="#0B1724" opacity="0.5"/>
  <rect x="448" y="114" width="84" height="14" rx="7" fill="white" opacity="0.88"/>
  <rect x="448" y="136" width="68" height="10" rx="5" fill="#D3F8FF" opacity="0.74"/>
  <rect x="448" y="152" width="76" height="10" rx="5" fill="#0C1824" opacity="0.48"/>
  <rect x="448" y="170" width="60" height="10" rx="5" fill="#D3F8FF" opacity="0.74"/>
  <rect x="404" y="210" width="120" height="22" rx="11" fill="#0E1723" opacity="0.78"/>
  <text x="421" y="225" fill="white" font-family="Arial, Helvetica, sans-serif" font-size="13" font-weight="700">New caption</text>

  <rect x="382" y="264" width="164" height="16" rx="8" fill="#1A2A3B"/>
  <rect x="382" y="264" width="116" height="16" rx="8" fill="#59A3FF"/>
  <rect x="382" y="286" width="164" height="16" rx="8" fill="#1A2A3B"/>
  <rect x="382" y="286" width="96" height="16" rx="8" fill="#63D9C1"/>
  <rect x="382" y="308" width="164" height="16" rx="8" fill="#1A2A3B"/>
  <rect x="382" y="308" width="70" height="16" rx="8" fill="#F6B35B"/>
  <rect x="468" y="257" width="3" height="74" rx="1.5" fill="white" opacity="0.92"/>

  <circle cx="467.5" cy="248" r="12" fill="#FF7F66"/>
  <rect x="461" y="244" width="13" height="3" rx="1.5" fill="white"/>
  <rect x="464" y="241" width="3" height="9" rx="1.5" fill="white"/>
</svg>
